<?xml version="1.0" encoding="UTF-8"?>
<!DOCTYPE svg PUBLIC "-//W3C//DTD SVG 1.1//EN" "http://www.w3.org/Graphics/SVG/1.1/DTD/svg11.dtd">
<!-- Creator: CorelDRAW X7 -->
<svg xmlns="http://www.w3.org/2000/svg" xml:space="preserve" width="113.34mm" height="32.9614mm" version="1.1" style="shape-rendering:geometricPrecision; text-rendering:geometricPrecision; image-rendering:optimizeQuality; fill-rule:evenodd; clip-rule:evenodd"
viewBox="0 0 12710 3696"
 xmlns:xlink="http://www.w3.org/1999/xlink">
 <defs>
  <style type="text/css">
   <![CDATA[
    .fil1 {fill:#23242B}
    .fil0 {fill:#888990}
   ]]>
  </style>
 </defs>
 <g id="Layer_x0020_1">
  <metadata id="CorelCorpID_0Corel-Layer"/>
  <g id="_2092857871424">
   <polygon class="fil0" points="0,0 12710,0 12710,40 0,40 "/>
   <path class="fil0" d="M4043 3691l0 -374 73 0 88 264c9,24 15,43 18,55 4,-13 11,-33 20,-59l89 -260 67 0 0 374 -48 0 0 -314 -108 314 -45 0 -108 -319 0 319 -46 0 0 0zm394 0l143 -374 54 0 152 374 -56 0 -44 -114 -157 0 -40 114 -52 0zm106 -155l128 0 -39 -102c-12,-32 -21,-58 -26,-78 -6,24 -13,47 -21,72l-42 108zm282 155l0 -374 128 0c29,0 52,1 67,6 22,4 40,13 55,25 20,18 34,38 44,64 9,26 15,56 15,90 0,28 -4,53 -10,75 -7,21 -16,40 -26,54 -10,15 -22,26 -33,34 -13,8 -28,14 -45,18 -17,5 -38,8 -61,8l-134 0 0 0zm49 -45l79 0c25,0 45,-2 60,-7 13,-5 24,-10 33,-19 11,-12 20,-28 27,-48 6,-19 9,-43 9,-72 0,-39 -6,-69 -19,-89 -13,-22 -29,-35 -46,-42 -13,-6 -35,-9 -64,-9l-79 0 0 286 0 0zm329 45l0 -374 269 0 0 43 -220 0 0 116 205 0 0 43 -205 0 0 127 228 0 0 45 -277 0 0 0zm500 0l0 -374 49 0 0 374 -49 0zm135 0l0 -374 51 0 196 293 0 -293 48 0 0 374 -52 0 -195 -293 0 293 -48 0 0 0zm452 0l143 -374 55 0 151 374 -56 0 -43 -114 -156 0 -42 114 -52 0zm108 -155l127 0 -39 -102c-11,-32 -21,-58 -27,-78 -4,24 -12,47 -20,72l-41 108zm280 155l0 -374 74 0 88 264c9,24 15,43 17,55 5,-13 12,-33 21,-59l91 -260 65 0 0 374 -48 0 0 -314 -108 314 -45 0 -107 -319 0 319 -48 0 0 0zm436 0l0 -374 270 0 0 43 -221 0 0 116 207 0 0 43 -207 0 0 127 230 0 0 45 -279 0 0 0zm348 0l0 -374 165 0c33,0 59,3 76,10 18,7 31,19 42,36 10,16 15,35 15,55 0,27 -9,49 -25,68 -17,17 -45,28 -79,34 13,6 23,13 29,19 14,13 28,29 41,49l64 103 -61 0 -50 -78c-15,-23 -26,-41 -35,-52 -10,-12 -19,-21 -26,-25 -7,-4 -14,-9 -21,-10 -6,-1 -15,-1 -28,-1l-58 0 0 166 -49 0 0 0zm49 -210l107 0c22,0 39,-1 52,-7 13,-4 23,-11 29,-22 7,-10 10,-21 10,-33 0,-19 -6,-33 -19,-45 -13,-11 -33,-15 -60,-15l-119 0 0 122 0 0zm335 210l0 -374 49 0 0 374 -49 0zm402 -132l50 13c-10,41 -29,71 -56,93 -28,21 -59,31 -98,31 -41,0 -74,-8 -99,-24 -25,-16 -44,-41 -57,-71 -13,-32 -20,-65 -20,-101 0,-39 8,-72 23,-101 14,-29 36,-51 63,-66 28,-15 58,-22 90,-22 37,0 69,9 95,27 24,21 42,47 52,81l-48 12c-8,-28 -21,-48 -37,-59 -18,-13 -38,-19 -62,-19 -29,0 -54,7 -73,20 -18,14 -33,33 -40,56 -7,23 -11,47 -11,71 0,32 4,59 13,84 10,23 24,40 43,53 20,12 40,18 63,18 28,0 51,-9 70,-25 20,-16 33,-39 39,-71l0 0zm70 132l143 -374 54 0 153 374 -57 0 -43 -114 -157 0 -41 114 -52 0 0 0zm107 -155l127 0 -39 -102c-11,-32 -20,-58 -26,-78 -6,24 -13,47 -21,72l-41 108z"/>
   <g id="_2461149289104">
    <polygon class="fil0" points="5387,1586 7323,1586 7323,2731 5387,2731 "/>
    <path class="fil1" d="M6196 1741l7 24 26 0 -20 15 7 24 -20 -16 -21 16 8 -24 -21 -15 26 0 8 -24 0 0zm0 -123l7 24 26 0 -20 15 7 23 -20 -15 -21 15 8 -23 -21 -15 26 0 8 -24 0 0zm-146 0l7 24 26 0 -20 15 7 23 -20 -15 -20 15 7 -23 -20 -15 26 0 7 -24 0 0zm-146 0l7 24 26 0 -21 15 8 23 -20 -15 -20 15 7 -23 -20 -15 24 0 9 -24zm-146 0l7 24 25 0 -20 15 8 23 -20 -15 -20 15 7 -23 -20 -15 25 0 8 -24zm-146 0l8 24 24 0 -20 15 9 23 -21 -15 -21 15 8 -23 -20 -15 25 0 8 -24 0 0zm438 123l7 24 26 0 -20 15 7 24 -20 -16 -20 16 7 -24 -20 -15 26 0 7 -24 0 0zm-146 0l7 24 26 0 -21 15 8 24 -20 -16 -20 16 7 -24 -20 -15 24 0 9 -24zm-146 0l7 24 25 0 -20 15 8 24 -20 -16 -20 16 7 -24 -20 -15 25 0 8 -24zm-146 0l8 24 24 0 -20 15 9 24 -21 -16 -21 16 8 -24 -20 -15 25 0 8 -24 0 0zm-147 0l9 24 24 0 -20 15 7 24 -20 -16 -20 16 9 -24 -21 -15 25 0 7 -24zm731 124l7 23 26 0 -20 14 7 25 -20 -15 -21 15 8 -25 -21 -14 26 0 8 -23 0 0zm-146 0l7 23 26 0 -20 14 7 25 -20 -15 -20 15 7 -25 -20 -14 26 0 7 -23 0 0zm-146 0l7 23 26 0 -21 14 8 25 -20 -15 -20 15 7 -25 -20 -14 24 0 9 -23zm-146 0l7 23 25 0 -20 14 8 25 -20 -15 -20 15 7 -25 -20 -14 25 0 8 -23zm-146 0l8 23 24 0 -20 14 9 25 -21 -15 -21 15 8 -25 -20 -14 25 0 8 -23 0 0zm-147 0l9 23 24 0 -20 14 7 25 -20 -15 -20 15 9 -25 -21 -14 25 0 7 -23zm731 122l7 25 26 0 -20 14 7 23 -20 -14 -21 14 8 -23 -21 -14 26 0 8 -25 0 0zm-146 0l7 25 26 0 -20 14 7 23 -20 -14 -20 14 7 -23 -20 -14 26 0 7 -25 0 0zm-146 0l7 25 26 0 -21 14 8 23 -20 -14 -20 14 7 -23 -20 -14 24 0 9 -25zm-146 0l7 25 25 0 -20 14 8 23 -20 -14 -20 14 7 -23 -20 -14 25 0 8 -25zm-146 0l8 25 24 0 -20 14 9 23 -21 -14 -21 14 8 -23 -20 -14 25 0 8 -25 0 0zm-147 0l9 25 24 0 -20 14 7 23 -20 -14 -20 14 9 -23 -21 -14 25 0 7 -25zm731 125l7 23 26 0 -20 14 7 25 -20 -15 -21 15 8 -25 -21 -14 26 0 8 -23 0 0zm-146 0l7 23 26 0 -20 14 7 25 -20 -15 -20 15 7 -25 -20 -14 26 0 7 -23 0 0zm-146 0l7 23 26 0 -21 14 8 25 -20 -15 -20 15 7 -25 -20 -14 24 0 9 -23zm-146 0l7 23 25 0 -20 14 8 25 -20 -15 -20 15 7 -25 -20 -14 25 0 8 -23zm-146 0l8 23 24 0 -20 14 9 25 -21 -15 -21 15 8 -25 -20 -14 25 0 8 -23 0 0zm-147 0l9 23 24 0 -20 14 7 25 -20 -15 -20 15 9 -25 -21 -14 25 0 7 -23zm220 -432l7 23 24 0 -20 14 9 25 -20 -14 -21 14 8 -25 -21 -14 25 0 9 -23zm145 0l8 23 24 0 -20 14 9 25 -21 -14 -20 14 7 -25 -20 -14 25 0 8 -23zm146 0l7 23 26 0 -20 14 7 25 -20 -14 -20 14 7 -25 -20 -14 26 0 7 -23 0 0zm146 0l7 23 26 0 -20 14 7 25 -20 -14 -20 14 7 -25 -20 -14 26 0 7 -23 0 0zm-585 0l9 23 25 0 -21 14 8 25 -21 -14 -20 14 9 -25 -20 -14 24 0 7 -23zm148 123l7 24 24 0 -20 15 9 23 -20 -15 -21 15 8 -23 -21 -15 25 0 9 -24zm145 0l8 24 24 0 -20 15 9 23 -21 -15 -20 15 7 -23 -20 -15 25 0 8 -24zm146 0l7 24 26 0 -20 15 7 23 -20 -15 -20 15 7 -23 -20 -15 26 0 7 -24 0 0zm146 0l7 24 26 0 -20 15 7 23 -20 -15 -20 15 7 -23 -20 -15 26 0 7 -24 0 0zm-585 0l9 24 25 0 -21 15 8 23 -21 -15 -20 15 9 -23 -20 -15 24 0 7 -24zm148 122l7 25 24 0 -20 14 9 25 -20 -16 -21 16 8 -25 -21 -14 25 0 9 -25zm145 0l8 25 24 0 -20 14 9 25 -21 -16 -20 16 7 -25 -20 -14 25 0 8 -25zm146 0l7 25 26 0 -20 14 7 25 -20 -16 -20 16 7 -25 -20 -14 26 0 7 -25 0 0zm146 0l7 25 26 0 -20 14 7 25 -20 -16 -20 16 7 -25 -20 -14 26 0 7 -25 0 0zm-585 0l9 25 25 0 -21 14 8 25 -21 -16 -20 16 9 -25 -20 -14 24 0 7 -25zm148 124l7 24 24 0 -20 15 9 24 -20 -15 -21 15 8 -24 -21 -15 25 0 9 -24zm145 0l8 24 24 0 -20 15 9 24 -21 -15 -20 15 7 -24 -20 -15 25 0 8 -24zm146 0l7 24 26 0 -20 15 7 24 -20 -15 -20 15 7 -24 -20 -15 26 0 7 -24 0 0zm146 0l7 24 26 0 -20 15 7 24 -20 -15 -20 15 7 -24 -20 -15 26 0 7 -24 0 0zm-585 0l9 24 25 0 -21 15 8 24 -21 -15 -20 15 9 -24 -20 -15 24 0 7 -24zm-72 -431l9 24 24 0 -20 15 7 23 -20 -15 -20 15 9 -23 -21 -15 25 0 7 -24zm-78 670l1936 0 0 92 -1936 0 0 -92zm0 174l1936 0 0 94 -1936 0 0 -94zm0 176l1936 0 0 93 -1936 0 0 -93zm862 -1052l25 0 1049 0 0 92 -1049 0 0 84 1049 0 0 93 -1049 0 0 82 1049 0 0 92 -1049 0 0 83 1049 0 0 93 -1049 0 -25 0 -862 0 0 -619 862 0 0 0z"/>
   </g>
   <path class="fil0" d="M9870 834c-42,-13 -73,-28 -92,-45 -20,-18 -29,-40 -29,-66 0,-30 11,-54 35,-73 24,-20 54,-29 92,-29 26,0 49,5 69,14 20,10 36,24 47,42 11,17 16,36 16,57l-49 0c0,-23 -7,-40 -22,-53 -14,-13 -35,-20 -61,-20 -24,0 -43,6 -57,16 -14,11 -20,26 -20,45 0,15 6,28 19,39 13,10 35,20 66,29 31,9 56,18 73,29 18,10 31,23 39,37 9,14 13,30 13,50 0,30 -12,54 -35,73 -24,18 -56,27 -95,27 -26,0 -50,-5 -72,-15 -23,-10 -40,-23 -52,-40 -12,-18 -18,-37 -18,-59l49 0c0,23 9,41 26,54 16,13 39,19 67,19 26,0 46,-5 60,-16 14,-10 21,-25 21,-43 0,-18 -7,-33 -20,-43 -13,-10 -36,-20 -70,-29zm-198 -6l-162 0 0 132 188 0 0 41 -238 0 0 -375 236 0 0 40 -186 0 0 121 162 0 0 41zm-300 173l-49 0 -189 -289 0 289 -50 0 0 -375 50 0 189 290 0 -290 49 0 0 375zm-411 -200c0,-44 -9,-78 -27,-102 -18,-24 -43,-36 -75,-36 -31,0 -56,12 -74,36 -17,24 -27,57 -27,99l0 27c0,43 9,77 27,102 18,24 43,37 75,37 32,0 56,-12 74,-35 17,-23 26,-57 27,-100l0 -28zm49 24c0,37 -6,69 -18,97 -13,27 -30,48 -53,62 -23,15 -49,22 -79,22 -30,0 -56,-7 -79,-22 -23,-14 -40,-35 -53,-62 -13,-27 -19,-58 -19,-93l0 -27c0,-36 6,-68 18,-96 13,-28 31,-49 54,-63 22,-15 49,-22 78,-22 30,0 57,7 80,21 23,15 40,36 53,63 12,28 18,60 18,97l0 23zm-563 -16l76 0c24,0 44,-7 58,-19 15,-13 22,-30 22,-51 0,-24 -7,-41 -21,-54 -14,-12 -34,-18 -60,-19l-75 0 0 143zm88 40l-88 0 0 152 -50 0 0 -375 124 0c42,0 75,9 97,29 23,19 35,47 35,84 0,23 -7,44 -19,61 -13,17 -30,30 -53,39l88 159 0 3 -53 0 -81 -152zm-434 -183l0 294 52 0c38,0 68,-12 89,-35 21,-24 31,-58 31,-102l0 -21c0,-43 -9,-76 -29,-100 -20,-23 -49,-35 -86,-36l-57 0zm-50 335l0 -375 106 0c33,0 62,7 87,21 25,15 44,35 58,62 13,27 20,57 20,92l0 24c0,35 -6,66 -20,93 -14,26 -33,47 -58,61 -26,14 -55,21 -89,22l-104 0zm-366 -175l-45 48 0 127 -50 0 0 -375 50 0 0 185 166 -185 60 0 -148 165 160 210 -60 0 -133 -175zm-370 -17l76 0c25,0 44,-7 59,-19 14,-13 21,-30 21,-51 0,-24 -7,-41 -20,-54 -14,-12 -34,-18 -60,-19l-76 0 0 143zm88 40l-88 0 0 152 -50 0 0 -375 125 0c42,0 74,9 97,29 23,19 34,47 34,84 0,23 -6,44 -19,61 -12,17 -30,30 -52,39l88 159 0 3 -53 0 -82 -152zm-261 -48c0,-44 -9,-78 -26,-102 -18,-24 -43,-36 -75,-36 -32,0 -56,12 -74,36 -18,24 -27,57 -28,99l0 27c0,43 9,77 27,102 18,24 43,37 75,37 32,0 57,-12 74,-35 18,-23 27,-57 27,-100l0 -28zm49 24c0,37 -6,69 -18,97 -12,27 -30,48 -53,62 -22,15 -49,22 -79,22 -29,0 -56,-7 -78,-22 -23,-14 -41,-35 -54,-62 -12,-27 -19,-58 -19,-93l0 -27c0,-36 6,-68 19,-96 12,-28 30,-49 53,-63 23,-15 49,-22 79,-22 30,0 56,7 79,21 23,15 41,36 53,63 12,28 18,60 18,97l0 23zm-675 58l7 49 11 -45 74 -261 42 0 72 261 10 46 8 -51 59 -256 49 0 -91 375 -45 0 -77 -274 -6 -28 -6 28 -80 274 -45 0 -90 -375 49 0 59 257zm-414 -49c-42,-13 -73,-28 -92,-45 -20,-18 -29,-40 -29,-66 0,-30 12,-54 35,-73 24,-20 55,-29 92,-29 26,0 49,5 69,14 20,10 36,24 47,42 11,17 17,36 17,57l-50 0c0,-23 -7,-40 -22,-53 -14,-13 -34,-20 -61,-20 -24,0 -43,6 -57,16 -13,11 -20,26 -20,45 0,15 6,28 19,39 13,10 35,20 66,29 32,9 56,18 74,29 17,10 30,23 39,37 8,14 12,30 12,50 0,30 -11,54 -35,73 -24,18 -56,27 -95,27 -26,0 -50,-5 -72,-15 -23,-10 -40,-23 -52,-40 -12,-18 -18,-37 -18,-59l50 0c0,23 8,41 25,54 17,13 39,19 67,19 26,0 46,-5 60,-16 14,-10 21,-25 21,-43 0,-18 -7,-33 -20,-43 -12,-10 -36,-20 -70,-29zm-188 -208l0 255c0,35 -11,64 -34,87 -22,22 -51,35 -89,37l-13 1c-41,0 -74,-11 -98,-33 -25,-22 -37,-53 -38,-92l0 -255 49 0 0 254c0,27 8,48 23,63 15,15 36,22 64,22 28,0 49,-7 64,-22 15,-15 22,-36 22,-63l0 -254 50 0zm-387 175c0,-44 -9,-78 -27,-102 -18,-24 -43,-36 -75,-36 -31,0 -56,12 -74,36 -18,24 -27,57 -27,99l0 27c0,43 9,77 27,102 18,24 43,37 74,37 32,0 57,-12 75,-35 17,-23 26,-57 27,-100l0 -28zm49 24c0,37 -6,69 -19,97 -12,27 -29,48 -52,62 -23,15 -49,22 -80,22 -29,0 -55,-7 -78,-22 -23,-14 -41,-35 -53,-62 -13,-27 -19,-58 -20,-93l0 -27c0,-36 7,-68 19,-96 13,-28 30,-49 53,-63 23,-15 50,-22 79,-22 30,0 57,7 79,21 23,15 41,36 53,63 13,28 19,60 19,97l0 23zm-685 -199l123 306 122 -306 64 0 0 375 -49 0 0 -146 4 -158 -123 304 -37 0 -123 -303 5 157 0 146 -50 0 0 -375 64 0zm-187 175c0,-44 -9,-78 -27,-102 -18,-24 -43,-36 -75,-36 -31,0 -56,12 -74,36 -17,24 -27,57 -27,99l0 27c0,43 9,77 27,102 18,24 43,37 75,37 32,0 56,-12 74,-35 17,-23 26,-57 27,-100l0 -28zm49 24c0,37 -6,69 -18,97 -13,27 -30,48 -53,62 -23,15 -49,22 -79,22 -30,0 -56,-7 -79,-22 -23,-14 -40,-35 -53,-62 -13,-27 -19,-58 -19,-93l0 -27c0,-36 6,-68 18,-96 13,-28 31,-49 54,-63 22,-15 49,-22 78,-22 30,0 57,7 80,21 23,15 40,36 53,63 12,28 18,60 18,97l0 23zm-376 176l-50 0 -188 -289 0 289 -50 0 0 -375 50 0 189 290 0 -290 49 0 0 375zm-411 -200c0,-44 -9,-78 -27,-102 -18,-24 -43,-36 -75,-36 -31,0 -56,12 -74,36 -18,24 -27,57 -28,99l0 27c0,43 9,77 28,102 18,24 43,37 74,37 32,0 57,-12 74,-35 18,-23 27,-57 28,-100l0 -28zm49 24c0,37 -6,69 -19,97 -12,27 -30,48 -52,62 -23,15 -49,22 -80,22 -29,0 -55,-7 -78,-22 -23,-14 -41,-35 -53,-62 -13,-27 -19,-58 -20,-93l0 -27c0,-36 6,-68 19,-96 13,-28 30,-49 53,-63 23,-15 49,-22 79,-22 30,0 56,7 79,21 23,15 41,36 53,63 13,28 19,60 19,97l0 23zm-337 -159l-121 0 0 335 -49 0 0 -335 -120 0 0 -40 290 0 0 40zm-337 -40l0 255c0,35 -12,64 -34,87 -22,22 -52,35 -89,37l-13 1c-41,0 -74,-11 -98,-33 -25,-22 -37,-53 -38,-92l0 -255 49 0 0 254c0,27 8,48 23,63 15,15 36,22 64,22 28,0 49,-7 64,-22 15,-15 22,-36 22,-63l0 -254 50 0zm-539 236l128 0 -64 -175 -64 175zm142 41l-157 0 -35 98 -51 0 143 -375 43 0 144 375 -51 0 -36 -98z"/>
  </g>
 </g>
</svg>
